<svg xmlns="http://www.w3.org/2000/svg" width="52" height="51" viewBox="0 0 52 51">
  <g id="facebook" transform="translate(-694 -474)">
    <ellipse id="Elipse_3" data-name="Elipse 3" cx="26" cy="25.5" rx="26" ry="25.5" transform="translate(694 474)" fill="#c67a00" opacity="0.098"/>
    <g id="Grupo_96" data-name="Grupo 96">
      <path id="Caminho_374" data-name="Caminho 374" d="M35.158.005,31.9,0c-3.663,0-6.03,2.428-6.03,6.187V9.04H22.59a.513.513,0,0,0-.513.513v4.133a.513.513,0,0,0,.513.513h3.278v10.43a.512.512,0,0,0,.513.513h4.277a.513.513,0,0,0,.513-.513V14.2H35a.512.512,0,0,0,.513-.513l0-4.133A.513.513,0,0,0,35,9.04H31.17V6.622c0-1.162.277-1.752,1.791-1.752h2.2a.513.513,0,0,0,.512-.513V.518A.513.513,0,0,0,35.158.005Z" transform="translate(690.637 486.749)" fill="#9b5400"/>
    </g>
  </g>
</svg>
