<svg xmlns="http://www.w3.org/2000/svg" width="51" height="51" viewBox="0 0 51 51">
  <g id="whatsapp" transform="translate(-764 -474)">
    <circle id="Elipse_4" data-name="Elipse 4" cx="25.5" cy="25.5" r="25.5" transform="translate(764 474)" fill="#c67a00" opacity="0.098"/>
    <g id="Grupo_97" data-name="Grupo 97">
      <path id="WhatsApp-2" data-name="WhatsApp" d="M25.5,12.421A12.539,12.539,0,0,1,6.931,23.3L0,25.5l2.26-6.664a12.291,12.291,0,0,1-1.8-6.414,12.519,12.519,0,0,1,25.036,0ZM12.982,1.978A10.5,10.5,0,0,0,2.457,12.421a10.333,10.333,0,0,0,2,6.123L3.147,22.423l4.045-1.285a10.535,10.535,0,0,0,16.315-8.715A10.5,10.5,0,0,0,12.982,1.978Zm6.321,13.3c-.077-.127-.282-.2-.588-.355s-1.816-.889-2.1-.99-.486-.152-.691.152-.792.99-.972,1.193-.358.229-.665.077a8.4,8.4,0,0,1-2.467-1.511,9.179,9.179,0,0,1-1.707-2.108c-.179-.3-.019-.469.135-.621.138-.137.307-.356.46-.533a2.041,2.041,0,0,0,.307-.508.555.555,0,0,0-.025-.534c-.076-.152-.691-1.65-.946-2.26s-.511-.508-.69-.508-.384-.025-.588-.025a1.132,1.132,0,0,0-.819.381A3.4,3.4,0,0,0,6.876,9.671,5.891,5.891,0,0,0,8.128,12.82a12.543,12.543,0,0,0,5.242,4.6c3.12,1.219,3.12.812,3.682.761a3.1,3.1,0,0,0,2.072-1.447A2.538,2.538,0,0,0,19.3,15.282Z" transform="translate(776.463 486.749)" fill="#9b5400"/>
    </g>
  </g>
</svg>
